<svg width="140" height="340" viewBox="0 0 140 340" fill="none" xmlns="http://www.w3.org/2000/svg">
<rect width="140" height="340" fill="#151515" fill-opacity="0.05"/>
<circle cx="22" cy="22" r="2" fill="#151515" fill-opacity="0.2"/>
<circle cx="30" cy="22" r="2" fill="#151515" fill-opacity="0.2"/>
<circle cx="38" cy="22" r="2" fill="#151515" fill-opacity="0.2"/>
<path d="M0 249H140" stroke="#151515" stroke-opacity="0.1"/>
<path d="M0 38H140" stroke="#151515" stroke-opacity="0.1"/>
<path d="M47.8281 62C47.8281 62.8542 47.6719 63.5885 47.3594 64.2031C47.0469 64.8151 46.6185 65.2865 46.0742 65.6172C45.5326 65.9453 44.9167 66.1094 44.2266 66.1094C43.5339 66.1094 42.9154 65.9453 42.3711 65.6172C41.8294 65.2865 41.4023 64.8138 41.0898 64.1992C40.7773 63.5846 40.6211 62.8516 40.6211 62C40.6211 61.1458 40.7773 60.4128 41.0898 59.8008C41.4023 59.1862 41.8294 58.7148 42.3711 58.3867C42.9154 58.056 43.5339 57.8906 44.2266 57.8906C44.9167 57.8906 45.5326 58.056 46.0742 58.3867C46.6185 58.7148 47.0469 59.1862 47.3594 59.8008C47.6719 60.4128 47.8281 61.1458 47.8281 62ZM46.6328 62C46.6328 61.349 46.5273 60.8008 46.3164 60.3555C46.1081 59.9076 45.8216 59.569 45.457 59.3398C45.0951 59.1081 44.6849 58.9922 44.2266 58.9922C43.7656 58.9922 43.3542 59.1081 42.9922 59.3398C42.6302 59.569 42.3438 59.9076 42.1328 60.3555C41.9245 60.8008 41.8203 61.349 41.8203 62C41.8203 62.651 41.9245 63.2005 42.1328 63.6484C42.3438 64.0937 42.6302 64.4323 42.9922 64.6641C43.3542 64.8932 43.7656 65.0078 44.2266 65.0078C44.6849 65.0078 45.0951 64.8932 45.457 64.6641C45.8216 64.4323 46.1081 64.0937 46.3164 63.6484C46.5273 63.2005 46.6328 62.651 46.6328 62ZM54.3721 60L52.1963 66H50.9463L48.7666 60H50.0205L51.54 64.6172H51.6025L53.1182 60H54.3721ZM57.8516 66.1211C57.2604 66.1211 56.7513 65.9948 56.3242 65.7422C55.8997 65.487 55.5716 65.1289 55.3398 64.668C55.1107 64.2044 54.9961 63.6615 54.9961 63.0391C54.9961 62.4245 55.1107 61.8828 55.3398 61.4141C55.5716 60.9453 55.8945 60.5794 56.3086 60.3164C56.7253 60.0534 57.2122 59.9219 57.7695 59.9219C58.1081 59.9219 58.4362 59.9779 58.7539 60.0898C59.0716 60.2018 59.3568 60.3776 59.6094 60.6172C59.862 60.8568 60.0612 61.168 60.207 61.5508C60.3529 61.931 60.4258 62.3932 60.4258 62.9375V63.3516H55.6563V62.4766H59.2813C59.2813 62.1693 59.2188 61.8971 59.0938 61.6602C58.9688 61.4206 58.793 61.2318 58.5664 61.0937C58.3424 60.9557 58.0794 60.8867 57.7773 60.8867C57.4492 60.8867 57.1628 60.9674 56.918 61.1289C56.6758 61.2878 56.4883 61.4961 56.3555 61.7539C56.2253 62.0091 56.1602 62.2865 56.1602 62.5859V63.2695C56.1602 63.6706 56.2305 64.0117 56.3711 64.293C56.5143 64.5742 56.7135 64.7891 56.9688 64.9375C57.224 65.0833 57.5221 65.1562 57.8633 65.1562C58.0846 65.1562 58.2865 65.125 58.4688 65.0625C58.651 64.9974 58.8086 64.901 58.9414 64.7734C59.0742 64.6458 59.1758 64.4883 59.2461 64.3008L60.3516 64.5C60.263 64.8255 60.1042 65.1107 59.875 65.3555C59.6484 65.5977 59.3633 65.7865 59.0195 65.9219C58.6784 66.0547 58.2891 66.1211 57.8516 66.1211ZM61.7217 66V60H62.8506V60.9531H62.9131C63.0225 60.6302 63.2152 60.3763 63.4912 60.1914C63.7699 60.0039 64.085 59.9102 64.4365 59.9102C64.5094 59.9102 64.5954 59.9128 64.6943 59.918C64.7959 59.9232 64.8753 59.9297 64.9326 59.9375V61.0547C64.8857 61.0417 64.8024 61.0273 64.6826 61.0117C64.5628 60.9935 64.443 60.9844 64.3232 60.9844C64.0472 60.9844 63.8011 61.043 63.585 61.1602C63.3714 61.2747 63.2021 61.4349 63.0771 61.6406C62.9521 61.8437 62.8896 62.0755 62.8896 62.3359V66H61.7217ZM71.2588 60L69.083 66H67.833L65.6533 60H66.9072L68.4268 64.6172H68.4893L70.0049 60H71.2588ZM72.3564 66V60H73.5244V66H72.3564ZM72.9463 59.0742C72.7432 59.0742 72.5687 59.0065 72.4229 58.8711C72.2796 58.7331 72.208 58.569 72.208 58.3789C72.208 58.1862 72.2796 58.0221 72.4229 57.8867C72.5687 57.7487 72.7432 57.6797 72.9463 57.6797C73.1494 57.6797 73.3226 57.7487 73.4658 57.8867C73.6117 58.0221 73.6846 58.1862 73.6846 58.3789C73.6846 58.569 73.6117 58.7331 73.4658 58.8711C73.3226 59.0065 73.1494 59.0742 72.9463 59.0742ZM77.6816 66.1211C77.0905 66.1211 76.5814 65.9948 76.1543 65.7422C75.7298 65.487 75.4017 65.1289 75.1699 64.668C74.9408 64.2044 74.8262 63.6615 74.8262 63.0391C74.8262 62.4245 74.9408 61.8828 75.1699 61.4141C75.4017 60.9453 75.7246 60.5794 76.1387 60.3164C76.5553 60.0534 77.0423 59.9219 77.5996 59.9219C77.9382 59.9219 78.2663 59.9779 78.584 60.0898C78.9017 60.2018 79.1868 60.3776 79.4395 60.6172C79.6921 60.8568 79.8913 61.168 80.0371 61.5508C80.1829 61.931 80.2559 62.3932 80.2559 62.9375V63.3516H75.4863V62.4766H79.1113C79.1113 62.1693 79.0488 61.8971 78.9238 61.6602C78.7988 61.4206 78.623 61.2318 78.3965 61.0937C78.1725 60.9557 77.9095 60.8867 77.6074 60.8867C77.2793 60.8867 76.9928 60.9674 76.748 61.1289C76.5059 61.2878 76.3184 61.4961 76.1855 61.7539C76.0553 62.0091 75.9902 62.2865 75.9902 62.5859V63.2695C75.9902 63.6706 76.0605 64.0117 76.2012 64.293C76.3444 64.5742 76.5436 64.7891 76.7988 64.9375C77.054 65.0833 77.3522 65.1562 77.6934 65.1562C77.9147 65.1562 78.1165 65.125 78.2988 65.0625C78.4811 64.9974 78.6387 64.901 78.7715 64.7734C78.9043 64.6458 79.0059 64.4883 79.0762 64.3008L80.1816 64.5C80.0931 64.8255 79.9342 65.1107 79.7051 65.3555C79.4785 65.5977 79.1934 65.7865 78.8496 65.9219C78.5085 66.0547 78.1191 66.1211 77.6816 66.1211ZM82.8418 66L81.0762 60H82.2832L83.459 64.4062H83.5176L84.6973 60H85.9043L87.0762 64.3867H87.1348L88.3027 60H89.5098L87.748 66H86.5566L85.3379 61.668H85.248L84.0293 66H82.8418Z" fill="#151515" fill-opacity="0.75"/>
<path d="M21.5 61.5V57.5H25.5V61.5H21.5ZM21.5 66.5V62.5H25.5V66.5H21.5ZM26.5 61.5V57.5H30.5V61.5H26.5ZM26.5 66.5V62.5H30.5V66.5H26.5Z" fill="#151515"/>
<path d="M45.2422 270.102C45.2005 269.732 45.0286 269.445 44.7266 269.242C44.4245 269.036 44.0443 268.934 43.5859 268.934C43.2578 268.934 42.974 268.986 42.7344 269.09C42.4948 269.191 42.3086 269.332 42.1758 269.512C42.0456 269.689 41.9805 269.891 41.9805 270.117C41.9805 270.307 42.0247 270.471 42.1133 270.609C42.2044 270.747 42.3229 270.863 42.4688 270.957C42.6172 271.048 42.776 271.125 42.9453 271.188C43.1146 271.247 43.2773 271.297 43.4336 271.336L44.2148 271.539C44.4701 271.602 44.7318 271.686 45 271.793C45.2682 271.9 45.5169 272.04 45.7461 272.215C45.9753 272.389 46.1602 272.605 46.3008 272.863C46.444 273.121 46.5156 273.43 46.5156 273.789C46.5156 274.242 46.3984 274.645 46.1641 274.996C45.9323 275.348 45.5951 275.625 45.1523 275.828C44.7122 276.031 44.1797 276.133 43.5547 276.133C42.9557 276.133 42.4375 276.038 42 275.848C41.5625 275.658 41.2201 275.388 40.9727 275.039C40.7253 274.687 40.5885 274.271 40.5625 273.789H41.7734C41.7969 274.078 41.8906 274.319 42.0547 274.512C42.2214 274.702 42.4336 274.844 42.6914 274.937C42.9518 275.029 43.237 275.074 43.5469 275.074C43.888 275.074 44.1914 275.021 44.457 274.914C44.7253 274.805 44.9362 274.654 45.0898 274.461C45.2435 274.266 45.3203 274.038 45.3203 273.777C45.3203 273.54 45.2526 273.346 45.1172 273.195C44.9844 273.044 44.8034 272.919 44.5742 272.82C44.3477 272.721 44.0911 272.634 43.8047 272.559L42.8594 272.301C42.2188 272.126 41.7109 271.87 41.3359 271.531C40.9635 271.193 40.7773 270.745 40.7773 270.187C40.7773 269.727 40.9023 269.324 41.1523 268.98C41.4023 268.637 41.7409 268.37 42.168 268.18C42.5951 267.987 43.0768 267.891 43.6133 267.891C44.1549 267.891 44.6328 267.986 45.0469 268.176C45.4635 268.366 45.7917 268.628 46.0313 268.961C46.2708 269.292 46.3958 269.672 46.4063 270.102H45.2422ZM50.4502 276.121C49.859 276.121 49.3499 275.995 48.9229 275.742C48.4984 275.487 48.1702 275.129 47.9385 274.668C47.7093 274.204 47.5947 273.661 47.5947 273.039C47.5947 272.424 47.7093 271.883 47.9385 271.414C48.1702 270.945 48.4932 270.579 48.9072 270.316C49.3239 270.053 49.8109 269.922 50.3682 269.922C50.7067 269.922 51.0348 269.978 51.3525 270.09C51.6702 270.202 51.9554 270.378 52.208 270.617C52.4606 270.857 52.6598 271.168 52.8057 271.551C52.9515 271.931 53.0244 272.393 53.0244 272.937V273.352H48.2549V272.477H51.8799C51.8799 272.169 51.8174 271.897 51.6924 271.66C51.5674 271.421 51.3916 271.232 51.165 271.094C50.9411 270.956 50.6781 270.887 50.376 270.887C50.0479 270.887 49.7614 270.967 49.5166 271.129C49.2744 271.288 49.0869 271.496 48.9541 271.754C48.8239 272.009 48.7588 272.286 48.7588 272.586V273.27C48.7588 273.671 48.8291 274.012 48.9697 274.293C49.113 274.574 49.3122 274.789 49.5674 274.937C49.8226 275.083 50.1208 275.156 50.4619 275.156C50.6833 275.156 50.8851 275.125 51.0674 275.062C51.2497 274.997 51.4072 274.901 51.54 274.773C51.6729 274.646 51.7744 274.488 51.8447 274.301L52.9502 274.5C52.8617 274.826 52.7028 275.111 52.4736 275.355C52.2471 275.598 51.9619 275.786 51.6182 275.922C51.277 276.055 50.8877 276.121 50.4502 276.121ZM57.1211 270V270.937H53.8438V270H57.1211ZM54.7227 268.562H55.8906V274.238C55.8906 274.465 55.9245 274.635 55.9922 274.75C56.0599 274.862 56.1471 274.939 56.2539 274.98C56.3633 275.02 56.4818 275.039 56.6094 275.039C56.7031 275.039 56.7852 275.033 56.8555 275.02C56.9258 275.007 56.9805 274.996 57.0195 274.988L57.2305 275.953C57.1628 275.979 57.0664 276.005 56.9414 276.031C56.8164 276.06 56.6602 276.076 56.4727 276.078C56.1654 276.083 55.8789 276.029 55.6133 275.914C55.3477 275.799 55.1328 275.622 54.9687 275.383C54.8047 275.143 54.7227 274.842 54.7227 274.48V268.562ZM61.2139 270V270.937H57.9365V270H61.2139ZM58.8154 268.562H59.9834V274.238C59.9834 274.465 60.0173 274.635 60.085 274.75C60.1527 274.862 60.2399 274.939 60.3467 274.98C60.4561 275.02 60.5745 275.039 60.7021 275.039C60.7959 275.039 60.8779 275.033 60.9482 275.02C61.0186 275.007 61.0732 274.996 61.1123 274.988L61.3232 275.953C61.2555 275.979 61.1592 276.005 61.0342 276.031C60.9092 276.06 60.7529 276.076 60.5654 276.078C60.2581 276.083 59.9717 276.029 59.7061 275.914C59.4404 275.799 59.2256 275.622 59.0615 275.383C58.8975 275.143 58.8154 274.842 58.8154 274.48V268.562ZM62.5059 276V270H63.6738V276H62.5059ZM63.0957 269.074C62.8926 269.074 62.7181 269.007 62.5723 268.871C62.429 268.733 62.3574 268.569 62.3574 268.379C62.3574 268.186 62.429 268.022 62.5723 267.887C62.7181 267.749 62.8926 267.68 63.0957 267.68C63.2988 267.68 63.472 267.749 63.6152 267.887C63.7611 268.022 63.834 268.186 63.834 268.379C63.834 268.569 63.7611 268.733 63.6152 268.871C63.472 269.007 63.2988 269.074 63.0957 269.074ZM66.4131 272.437V276H65.2451V270H66.3662V270.977H66.4404C66.5785 270.659 66.7946 270.404 67.0889 270.211C67.3857 270.018 67.7594 269.922 68.21 269.922C68.6188 269.922 68.9769 270.008 69.2842 270.18C69.5915 270.349 69.8298 270.602 69.999 270.937C70.1683 271.273 70.2529 271.689 70.2529 272.184V276H69.085V272.324C69.085 271.889 68.9717 271.549 68.7451 271.305C68.5186 271.057 68.2074 270.934 67.8115 270.934C67.5407 270.934 67.2998 270.992 67.0889 271.109C66.8805 271.227 66.7152 271.398 66.5928 271.625C66.473 271.849 66.4131 272.12 66.4131 272.437ZM74.335 278.375C73.8584 278.375 73.4482 278.313 73.1045 278.188C72.7633 278.063 72.4847 277.897 72.2686 277.691C72.0524 277.486 71.891 277.26 71.7842 277.016L72.7881 276.602C72.8584 276.716 72.9521 276.837 73.0693 276.965C73.1891 277.095 73.3506 277.206 73.5537 277.297C73.7594 277.388 74.0238 277.434 74.3467 277.434C74.7894 277.434 75.1553 277.326 75.4443 277.109C75.7334 276.896 75.8779 276.555 75.8779 276.086V274.906H75.8037C75.7334 275.034 75.6318 275.176 75.499 275.332C75.3688 275.488 75.1891 275.624 74.96 275.738C74.7308 275.853 74.4326 275.91 74.0654 275.91C73.5915 275.91 73.1644 275.799 72.7842 275.578C72.4066 275.354 72.1071 275.025 71.8857 274.59C71.667 274.152 71.5576 273.615 71.5576 272.977C71.5576 272.339 71.6657 271.792 71.8818 271.336C72.1006 270.88 72.4001 270.531 72.7803 270.289C73.1605 270.044 73.5915 269.922 74.0732 269.922C74.4456 269.922 74.7464 269.984 74.9756 270.109C75.2048 270.232 75.3831 270.375 75.5107 270.539C75.641 270.703 75.7412 270.848 75.8115 270.973H75.8975V270H77.042V276.133C77.042 276.648 76.9222 277.072 76.6826 277.402C76.443 277.733 76.1188 277.978 75.71 278.137C75.3037 278.296 74.8454 278.375 74.335 278.375ZM74.3232 274.941C74.6592 274.941 74.943 274.863 75.1748 274.707C75.4092 274.548 75.5863 274.322 75.7061 274.027C75.8285 273.73 75.8896 273.375 75.8896 272.961C75.8896 272.557 75.8298 272.202 75.71 271.895C75.5902 271.587 75.4144 271.348 75.1826 271.176C74.9508 271.001 74.6644 270.914 74.3232 270.914C73.9717 270.914 73.6787 271.005 73.4443 271.188C73.21 271.367 73.0329 271.612 72.9131 271.922C72.7959 272.232 72.7373 272.578 72.7373 272.961C72.7373 273.354 72.7972 273.699 72.917 273.996C73.0368 274.293 73.2139 274.525 73.4482 274.691C73.6852 274.858 73.9769 274.941 74.3232 274.941ZM83.1045 271.465L82.0459 271.652C82.0016 271.517 81.9313 271.388 81.835 271.266C81.7412 271.143 81.6136 271.043 81.4521 270.965C81.2907 270.887 81.0889 270.848 80.8467 270.848C80.516 270.848 80.2399 270.922 80.0186 271.07C79.7972 271.216 79.6865 271.405 79.6865 271.637C79.6865 271.837 79.7607 271.999 79.9092 272.121C80.0576 272.243 80.2972 272.344 80.6279 272.422L81.5811 272.641C82.1331 272.768 82.5446 272.965 82.8154 273.23C83.0863 273.496 83.2217 273.841 83.2217 274.266C83.2217 274.625 83.1175 274.945 82.9092 275.227C82.7035 275.505 82.4157 275.724 82.0459 275.883C81.6787 276.042 81.2529 276.121 80.7686 276.121C80.0967 276.121 79.5485 275.978 79.124 275.691C78.6995 275.402 78.4391 274.992 78.3428 274.461L79.4717 274.289C79.542 274.583 79.6865 274.806 79.9053 274.957C80.124 275.105 80.4092 275.18 80.7607 275.18C81.1436 275.18 81.4495 275.1 81.6787 274.941C81.9079 274.78 82.0225 274.583 82.0225 274.352C82.0225 274.164 81.9521 274.007 81.8115 273.879C81.6735 273.751 81.4613 273.655 81.1748 273.59L80.1592 273.367C79.5993 273.24 79.1852 273.036 78.917 272.758C78.6514 272.479 78.5186 272.126 78.5186 271.699C78.5186 271.345 78.6175 271.035 78.8154 270.77C79.0133 270.504 79.2868 270.297 79.6357 270.148C79.9847 269.997 80.3844 269.922 80.835 269.922C81.4834 269.922 81.9938 270.062 82.3662 270.344C82.7386 270.622 82.9847 270.996 83.1045 271.465Z" fill="#151515" fill-opacity="0.75"/>
<path d="M25.4125 277C25.1875 277 24.9937 276.925 24.8312 276.775C24.6687 276.625 24.5708 276.442 24.5375 276.225L24.425 275.4C24.3167 275.358 24.2146 275.308 24.1187 275.25C24.0229 275.192 23.9292 275.129 23.8375 275.063L23.0625 275.388C22.8542 275.479 22.6458 275.488 22.4375 275.413C22.2292 275.338 22.0667 275.204 21.95 275.013L21.3625 273.988C21.2458 273.796 21.2125 273.592 21.2625 273.375C21.3125 273.158 21.425 272.979 21.6 272.838L22.2625 272.338C22.2542 272.279 22.25 272.223 22.25 272.169V271.831C22.25 271.777 22.2542 271.721 22.2625 271.663L21.6 271.163C21.425 271.021 21.3125 270.842 21.2625 270.625C21.2125 270.408 21.2458 270.204 21.3625 270.013L21.95 268.988C22.0667 268.796 22.2292 268.663 22.4375 268.588C22.6458 268.513 22.8542 268.521 23.0625 268.613L23.8375 268.938C23.9292 268.871 24.025 268.808 24.125 268.75C24.225 268.692 24.325 268.642 24.425 268.6L24.5375 267.775C24.5708 267.558 24.6687 267.375 24.8312 267.225C24.9937 267.075 25.1875 267 25.4125 267H26.5875C26.8125 267 27.0062 267.075 27.1687 267.225C27.3312 267.375 27.4292 267.558 27.4625 267.775L27.575 268.6C27.6833 268.642 27.7854 268.692 27.8812 268.75C27.9771 268.808 28.0708 268.871 28.1625 268.938L28.9375 268.613C29.1458 268.521 29.3542 268.513 29.5625 268.588C29.7708 268.663 29.9333 268.796 30.05 268.988L30.6375 270.013C30.7542 270.204 30.7875 270.408 30.7375 270.625C30.6875 270.842 30.575 271.021 30.4 271.163L29.7375 271.663C29.7458 271.721 29.75 271.777 29.75 271.831V272.169C29.75 272.223 29.7417 272.279 29.725 272.338L30.3875 272.838C30.5625 272.979 30.675 273.158 30.725 273.375C30.775 273.592 30.7417 273.796 30.625 273.988L30.025 275.013C29.9083 275.204 29.7458 275.338 29.5375 275.413C29.3292 275.488 29.1208 275.479 28.9125 275.388L28.1625 275.063C28.0708 275.129 27.975 275.192 27.875 275.25C27.775 275.308 27.675 275.358 27.575 275.4L27.4625 276.225C27.4292 276.442 27.3312 276.625 27.1687 276.775C27.0062 276.925 26.8125 277 26.5875 277H25.4125ZM26.025 273.75C26.5083 273.75 26.9208 273.579 27.2625 273.238C27.6042 272.896 27.775 272.483 27.775 272C27.775 271.517 27.6042 271.104 27.2625 270.763C26.9208 270.421 26.5083 270.25 26.025 270.25C25.5333 270.25 25.1187 270.421 24.7812 270.763C24.4437 271.104 24.275 271.517 24.275 272C24.275 272.483 24.4437 272.896 24.7812 273.238C25.1187 273.579 25.5333 273.75 26.025 273.75Z" fill="#151515"/>
<path d="M46.0234 83H47.2344V88.2617C47.2344 88.8216 47.1029 89.3177 46.8398 89.75C46.5768 90.1797 46.207 90.5182 45.7305 90.7656C45.2539 91.0104 44.6953 91.1328 44.0547 91.1328C43.4167 91.1328 42.8594 91.0104 42.3828 90.7656C41.9063 90.5182 41.5365 90.1797 41.2734 89.75C41.0104 89.3177 40.8789 88.8216 40.8789 88.2617V83H42.0859V88.1641C42.0859 88.526 42.1654 88.8477 42.3242 89.1289C42.4857 89.4102 42.7135 89.6315 43.0078 89.793C43.3021 89.9518 43.651 90.0312 44.0547 90.0312C44.4609 90.0312 44.8112 89.9518 45.1055 89.793C45.4023 89.6315 45.6289 89.4102 45.7852 89.1289C45.944 88.8477 46.0234 88.526 46.0234 88.1641V83ZM48.8955 93.25V85H50.0361V85.9727H50.1338C50.2015 85.8477 50.2992 85.7031 50.4268 85.5391C50.5544 85.375 50.7314 85.2318 50.958 85.1094C51.1846 84.9844 51.484 84.9219 51.8564 84.9219C52.3408 84.9219 52.7731 85.0443 53.1533 85.2891C53.5335 85.5339 53.8317 85.8867 54.0479 86.3477C54.2666 86.8086 54.376 87.3633 54.376 88.0117C54.376 88.6602 54.2679 89.2161 54.0518 89.6797C53.8356 90.1406 53.5387 90.4961 53.1611 90.7461C52.7835 90.9935 52.3525 91.1172 51.8682 91.1172C51.5036 91.1172 51.2054 91.056 50.9736 90.9336C50.7445 90.8112 50.5648 90.668 50.4346 90.5039C50.3044 90.3398 50.2041 90.194 50.1338 90.0664H50.0635V93.25H48.8955ZM50.04 88C50.04 88.4219 50.1012 88.7917 50.2236 89.1094C50.346 89.4271 50.5231 89.6758 50.7549 89.8555C50.9867 90.0326 51.2705 90.1211 51.6064 90.1211C51.9554 90.1211 52.2471 90.0286 52.4814 89.8437C52.7158 89.6562 52.8929 89.4023 53.0127 89.082C53.1351 88.7617 53.1963 88.401 53.1963 88C53.1963 87.6042 53.1364 87.2487 53.0166 86.9336C52.8994 86.6185 52.7223 86.3698 52.4854 86.1875C52.251 86.0052 51.958 85.9141 51.6064 85.9141C51.2679 85.9141 50.9814 86.0013 50.7471 86.1758C50.5153 86.3503 50.3395 86.5937 50.2197 86.9062C50.0999 87.2187 50.04 87.5833 50.04 88ZM57.9307 91.1172C57.4463 91.1172 57.014 90.9935 56.6338 90.7461C56.2562 90.4961 55.9593 90.1406 55.7432 89.6797C55.5296 89.2161 55.4229 88.6602 55.4229 88.0117C55.4229 87.3633 55.5309 86.8086 55.7471 86.3477C55.9658 85.8867 56.2653 85.5339 56.6455 85.2891C57.0257 85.0443 57.4567 84.9219 57.9385 84.9219C58.3109 84.9219 58.6104 84.9844 58.8369 85.1094C59.0661 85.2318 59.2432 85.375 59.3682 85.5391C59.4958 85.7031 59.5947 85.8477 59.665 85.9727H59.7354V83H60.9033V91H59.7627V90.0664H59.665C59.5947 90.194 59.4932 90.3398 59.3604 90.5039C59.2301 90.668 59.0505 90.8112 58.8213 90.9336C58.5921 91.056 58.2952 91.1172 57.9307 91.1172ZM58.1885 90.1211C58.5244 90.1211 58.8083 90.0326 59.04 89.8555C59.2744 89.6758 59.4515 89.4271 59.5713 89.1094C59.6937 88.7917 59.7549 88.4219 59.7549 88C59.7549 87.5833 59.695 87.2187 59.5752 86.9062C59.4554 86.5937 59.2796 86.3503 59.0479 86.1758C58.8161 86.0013 58.5296 85.9141 58.1885 85.9141C57.8369 85.9141 57.5439 86.0052 57.3096 86.1875C57.0752 86.3698 56.8981 86.6185 56.7783 86.9336C56.6611 87.2487 56.6025 87.6042 56.6025 88C56.6025 88.401 56.6624 88.7617 56.7822 89.082C56.902 89.4023 57.0791 89.6562 57.3135 89.8437C57.5505 90.0286 57.8421 90.1211 58.1885 90.1211ZM64.3164 91.1328C63.9362 91.1328 63.5924 91.0625 63.2852 90.9219C62.9779 90.7786 62.7344 90.5716 62.5547 90.3008C62.3776 90.0299 62.2891 89.6979 62.2891 89.3047C62.2891 88.9661 62.3542 88.6875 62.4844 88.4687C62.6146 88.25 62.7904 88.0768 63.0117 87.9492C63.2331 87.8216 63.4805 87.7253 63.7539 87.6602C64.0273 87.5951 64.306 87.5456 64.5898 87.5117C64.9492 87.4701 65.2409 87.4362 65.4648 87.4102C65.6888 87.3815 65.8516 87.3359 65.9531 87.2734C66.0547 87.2109 66.1055 87.1094 66.1055 86.9687V86.9414C66.1055 86.6003 66.0091 86.3359 65.8164 86.1484C65.6263 85.9609 65.3424 85.8672 64.9648 85.8672C64.5716 85.8672 64.2617 85.9544 64.0352 86.1289C63.8112 86.3008 63.6563 86.4922 63.5703 86.7031L62.4727 86.4531C62.6029 86.0885 62.793 85.7943 63.043 85.5703C63.2956 85.3437 63.5859 85.1797 63.9141 85.0781C64.2422 84.974 64.5872 84.9219 64.9492 84.9219C65.1888 84.9219 65.4427 84.9505 65.7109 85.0078C65.9818 85.0625 66.2344 85.1641 66.4688 85.3125C66.7057 85.4609 66.8997 85.6732 67.0508 85.9492C67.2018 86.2227 67.2773 86.5781 67.2773 87.0156V91H66.1367V90.1797H66.0898C66.0143 90.3307 65.901 90.4792 65.75 90.625C65.599 90.7708 65.4049 90.8919 65.168 90.9883C64.931 91.0846 64.6471 91.1328 64.3164 91.1328ZM64.5703 90.1953C64.8932 90.1953 65.1693 90.1315 65.3984 90.0039C65.6302 89.8763 65.806 89.7096 65.9258 89.5039C66.0482 89.2956 66.1094 89.0729 66.1094 88.8359V88.0625C66.0677 88.1042 65.987 88.1432 65.8672 88.1797C65.75 88.2135 65.6159 88.2435 65.4648 88.2695C65.3138 88.293 65.1667 88.3151 65.0234 88.3359C64.8802 88.3542 64.7604 88.3698 64.6641 88.3828C64.4375 88.4115 64.2305 88.4596 64.043 88.5273C63.8581 88.5951 63.7096 88.6927 63.5977 88.8203C63.4883 88.9453 63.4336 89.112 63.4336 89.3203C63.4336 89.6094 63.5404 89.8281 63.7539 89.9766C63.9674 90.1224 64.2396 90.1953 64.5703 90.1953ZM71.6338 85V85.9375H68.3564V85H71.6338ZM69.2354 83.5625H70.4033V89.2383C70.4033 89.4648 70.4372 89.6354 70.5049 89.75C70.5726 89.862 70.6598 89.9388 70.7666 89.9805C70.876 90.0195 70.9945 90.0391 71.1221 90.0391C71.2158 90.0391 71.2979 90.0326 71.3682 90.0195C71.4385 90.0065 71.4932 89.9961 71.5322 89.9883L71.7432 90.9531C71.6755 90.9792 71.5791 91.0052 71.4541 91.0313C71.3291 91.0599 71.1729 91.0755 70.9854 91.0781C70.6781 91.0833 70.3916 91.0286 70.126 90.9141C69.8604 90.7995 69.6455 90.6224 69.4814 90.3828C69.3174 90.1432 69.2354 89.8424 69.2354 89.4805V83.5625ZM75.4473 91.1211C74.8561 91.1211 74.347 90.9948 73.9199 90.7422C73.4954 90.487 73.1673 90.1289 72.9355 89.668C72.7064 89.2044 72.5918 88.6615 72.5918 88.0391C72.5918 87.4245 72.7064 86.8828 72.9355 86.4141C73.1673 85.9453 73.4902 85.5794 73.9043 85.3164C74.321 85.0534 74.8079 84.9219 75.3652 84.9219C75.7038 84.9219 76.0319 84.9779 76.3496 85.0898C76.6673 85.2018 76.9525 85.3776 77.2051 85.6172C77.4577 85.8568 77.6569 86.168 77.8027 86.5508C77.9486 86.931 78.0215 87.3932 78.0215 87.9375V88.3516H73.252V87.4766H76.877C76.877 87.1693 76.8145 86.8971 76.6895 86.6602C76.5645 86.4206 76.3887 86.2318 76.1621 86.0937C75.9382 85.9557 75.6751 85.8867 75.373 85.8867C75.0449 85.8867 74.7585 85.9674 74.5137 86.1289C74.2715 86.2878 74.084 86.4961 73.9512 86.7539C73.821 87.0091 73.7559 87.2865 73.7559 87.5859V88.2695C73.7559 88.6706 73.8262 89.0117 73.9668 89.293C74.11 89.5742 74.3092 89.7891 74.5645 89.9375C74.8197 90.0833 75.1178 90.1562 75.459 90.1562C75.6803 90.1562 75.8822 90.125 76.0645 90.0625C76.2467 89.9974 76.4043 89.901 76.5371 89.7734C76.6699 89.6458 76.7715 89.4883 76.8418 89.3008L77.9473 89.5C77.8587 89.8255 77.6999 90.1107 77.4707 90.3555C77.2441 90.5977 76.959 90.7865 76.6152 90.9219C76.2741 91.0547 75.8848 91.1211 75.4473 91.1211ZM83.8135 86.4648L82.7549 86.6523C82.7106 86.5169 82.6403 86.388 82.5439 86.2656C82.4502 86.1432 82.3226 86.043 82.1611 85.9648C81.9997 85.8867 81.7979 85.8477 81.5557 85.8477C81.2249 85.8477 80.9489 85.9219 80.7275 86.0703C80.5062 86.2161 80.3955 86.4049 80.3955 86.6367C80.3955 86.8372 80.4697 86.9987 80.6182 87.1211C80.7666 87.2435 81.0062 87.3437 81.3369 87.4219L82.29 87.6406C82.8421 87.7682 83.2536 87.9648 83.5244 88.2305C83.7952 88.4961 83.9307 88.8411 83.9307 89.2656C83.9307 89.625 83.8265 89.9453 83.6182 90.2266C83.4124 90.5052 83.1247 90.724 82.7549 90.8828C82.3877 91.0417 81.9619 91.1211 81.4775 91.1211C80.8057 91.1211 80.2575 90.9779 79.833 90.6914C79.4085 90.4023 79.1481 89.9922 79.0518 89.4609L80.1807 89.2891C80.251 89.5833 80.3955 89.806 80.6143 89.957C80.833 90.1055 81.1182 90.1797 81.4697 90.1797C81.8525 90.1797 82.1585 90.1003 82.3877 89.9414C82.6169 89.7799 82.7314 89.5833 82.7314 89.3516C82.7314 89.1641 82.6611 89.0065 82.5205 88.8789C82.3825 88.7513 82.1702 88.6549 81.8838 88.5898L80.8682 88.3672C80.3083 88.2396 79.8942 88.0365 79.626 87.7578C79.3604 87.4792 79.2275 87.1263 79.2275 86.6992C79.2275 86.3451 79.3265 86.0352 79.5244 85.7695C79.7223 85.5039 79.9958 85.2969 80.3447 85.1484C80.6937 84.9974 81.0934 84.9219 81.5439 84.9219C82.1924 84.9219 82.7028 85.0625 83.0752 85.3437C83.4476 85.6224 83.6937 85.9961 83.8135 86.4648Z" fill="#151515" fill-opacity="0.75"/>
<path d="M22.5 90.5C22.3583 90.5 22.2396 90.4521 22.1438 90.3563C22.0479 90.2604 22 90.1417 22 90C22 89.8583 22.0479 89.7396 22.1438 89.6438C22.2396 89.5479 22.3583 89.5 22.5 89.5H23V86C23 85.3083 23.2083 84.6938 23.625 84.1563C24.0417 83.6188 24.5833 83.2667 25.25 83.1V82.75C25.25 82.5417 25.3229 82.3646 25.4688 82.2188C25.6146 82.0729 25.7917 82 26 82C26.2083 82 26.3854 82.0729 26.5313 82.2188C26.6771 82.3646 26.75 82.5417 26.75 82.75V83.1C27.4167 83.2667 27.9583 83.6188 28.375 84.1563C28.7917 84.6938 29 85.3083 29 86V89.5H29.5C29.6417 89.5 29.7604 89.5479 29.8563 89.6438C29.9521 89.7396 30 89.8583 30 90C30 90.1417 29.9521 90.2604 29.8563 90.3563C29.7604 90.4521 29.6417 90.5 29.5 90.5H22.5ZM26 92C25.725 92 25.4896 91.9021 25.2938 91.7063C25.0979 91.5104 25 91.275 25 91H27C27 91.275 26.9021 91.5104 26.7063 91.7063C26.5104 91.9021 26.275 92 26 92Z" fill="#151515"/>
<path d="M21.5 116C21.225 116 20.9896 115.902 20.7938 115.706C20.5979 115.51 20.5 115.275 20.5 115V110C20.5 109.858 20.5479 109.74 20.6438 109.644C20.7396 109.548 20.8583 109.5 21 109.5C21.1417 109.5 21.2604 109.548 21.3563 109.644C21.4521 109.74 21.5 109.858 21.5 110V115H29.5C29.6417 115 29.7604 115.048 29.8563 115.144C29.9521 115.24 30 115.358 30 115.5C30 115.642 29.9521 115.76 29.8563 115.856C29.7604 115.952 29.6417 116 29.5 116H21.5ZM23.5 114C23.225 114 22.9896 113.902 22.7938 113.706C22.5979 113.51 22.5 113.275 22.5 113V109C22.5 108.725 22.5979 108.49 22.7938 108.294C22.9896 108.098 23.225 108 23.5 108H30.5C30.775 108 31.0104 108.098 31.2063 108.294C31.4021 108.49 31.5 108.725 31.5 109V113C31.5 113.275 31.4021 113.51 31.2063 113.706C31.0104 113.902 30.775 114 30.5 114H23.5ZM24.5 113C24.5 112.725 24.4021 112.49 24.2063 112.294C24.0104 112.098 23.775 112 23.5 112V113H24.5ZM29.5 113H30.5V112C30.225 112 29.9896 112.098 29.7938 112.294C29.5979 112.49 29.5 112.725 29.5 113ZM27 112.5C27.4167 112.5 27.7708 112.354 28.0625 112.063C28.3542 111.771 28.5 111.417 28.5 111C28.5 110.583 28.3542 110.229 28.0625 109.938C27.7708 109.646 27.4167 109.5 27 109.5C26.5833 109.5 26.2292 109.646 25.9375 109.938C25.6458 110.229 25.5 110.583 25.5 111C25.5 111.417 25.6458 111.771 25.9375 112.063C26.2292 112.354 26.5833 112.5 27 112.5ZM23.5 110C23.775 110 24.0104 109.902 24.2063 109.706C24.4021 109.51 24.5 109.275 24.5 109H23.5V110ZM30.5 110V109H29.5C29.5 109.275 29.5979 109.51 29.7938 109.706C29.9896 109.902 30.225 110 30.5 110Z" fill="#151515"/>
<path d="M40.8789 116V108H43.7305C44.3529 108 44.8685 108.113 45.2773 108.34C45.6862 108.566 45.9922 108.876 46.1953 109.27C46.3984 109.66 46.5 110.1 46.5 110.59C46.5 111.082 46.3971 111.525 46.1914 111.918C45.9883 112.309 45.681 112.618 45.2695 112.848C44.8607 113.074 44.3464 113.188 43.7266 113.188H41.7656V112.164H43.6172C44.0104 112.164 44.3294 112.096 44.5742 111.961C44.819 111.823 44.9987 111.635 45.1133 111.398C45.2279 111.161 45.2852 110.892 45.2852 110.59C45.2852 110.288 45.2279 110.02 45.1133 109.785C44.9987 109.551 44.8177 109.367 44.5703 109.234C44.3255 109.102 44.0026 109.035 43.6016 109.035H42.0859V116H40.8789ZM49.5137 116.133C49.1335 116.133 48.7897 116.063 48.4824 115.922C48.1751 115.779 47.9316 115.572 47.752 115.301C47.5749 115.03 47.4863 114.698 47.4863 114.305C47.4863 113.966 47.5514 113.687 47.6816 113.469C47.8118 113.25 47.9876 113.077 48.209 112.949C48.4303 112.822 48.6777 112.725 48.9512 112.66C49.2246 112.595 49.5033 112.546 49.7871 112.512C50.1465 112.47 50.4382 112.436 50.6621 112.41C50.8861 112.382 51.0488 112.336 51.1504 112.273C51.252 112.211 51.3027 112.109 51.3027 111.969V111.941C51.3027 111.6 51.2064 111.336 51.0137 111.148C50.8236 110.961 50.5397 110.867 50.1621 110.867C49.7689 110.867 49.459 110.954 49.2324 111.129C49.0085 111.301 48.8535 111.492 48.7676 111.703L47.6699 111.453C47.8001 111.089 47.9902 110.794 48.2402 110.57C48.4928 110.344 48.7832 110.18 49.1113 110.078C49.4395 109.974 49.7845 109.922 50.1465 109.922C50.3861 109.922 50.64 109.951 50.9082 110.008C51.179 110.062 51.4316 110.164 51.666 110.312C51.903 110.461 52.097 110.673 52.248 110.949C52.3991 111.223 52.4746 111.578 52.4746 112.016V116H51.334V115.18H51.2871C51.2116 115.331 51.0983 115.479 50.9473 115.625C50.7962 115.771 50.6022 115.892 50.3652 115.988C50.1283 116.085 49.8444 116.133 49.5137 116.133ZM49.7676 115.195C50.0905 115.195 50.3665 115.132 50.5957 115.004C50.8275 114.876 51.0033 114.71 51.123 114.504C51.2454 114.296 51.3066 114.073 51.3066 113.836V113.062C51.265 113.104 51.1842 113.143 51.0645 113.18C50.9473 113.214 50.8132 113.243 50.6621 113.27C50.5111 113.293 50.3639 113.315 50.2207 113.336C50.0775 113.354 49.9577 113.37 49.8613 113.383C49.6348 113.411 49.4277 113.46 49.2402 113.527C49.0553 113.595 48.9069 113.693 48.7949 113.82C48.6855 113.945 48.6309 114.112 48.6309 114.32C48.6309 114.609 48.7376 114.828 48.9512 114.977C49.1647 115.122 49.4368 115.195 49.7676 115.195ZM54.5537 118.25C54.3792 118.25 54.2204 118.236 54.0771 118.207C53.9339 118.181 53.8271 118.152 53.7568 118.121L54.0381 117.164C54.2516 117.221 54.4417 117.246 54.6084 117.238C54.7751 117.23 54.9222 117.168 55.0498 117.051C55.18 116.934 55.2946 116.742 55.3936 116.477L55.5381 116.078L53.3428 110H54.5928L56.1123 114.656H56.1748L57.6943 110H58.9482L56.4756 116.801C56.361 117.113 56.2152 117.378 56.0381 117.594C55.861 117.813 55.6501 117.977 55.4053 118.086C55.1605 118.195 54.8766 118.25 54.5537 118.25ZM60.0459 116V110H61.167V110.977H61.2412C61.3662 110.646 61.5706 110.388 61.8545 110.203C62.1383 110.016 62.4782 109.922 62.874 109.922C63.2751 109.922 63.611 110.016 63.8818 110.203C64.1553 110.391 64.3571 110.648 64.4873 110.977H64.5498C64.693 110.656 64.9209 110.401 65.2334 110.211C65.5459 110.018 65.9183 109.922 66.3506 109.922C66.8949 109.922 67.3389 110.092 67.6826 110.434C68.029 110.775 68.2021 111.289 68.2021 111.977V116H67.0342V112.086C67.0342 111.68 66.9235 111.385 66.7021 111.203C66.4808 111.021 66.2165 110.93 65.9092 110.93C65.529 110.93 65.2334 111.047 65.0225 111.281C64.8115 111.513 64.7061 111.811 64.7061 112.176V116H63.542V112.012C63.542 111.686 63.4404 111.424 63.2373 111.227C63.0342 111.029 62.7699 110.93 62.4443 110.93C62.223 110.93 62.0186 110.988 61.8311 111.105C61.6462 111.22 61.4964 111.38 61.3818 111.586C61.2699 111.792 61.2139 112.03 61.2139 112.301V116H60.0459ZM72.3535 116.121C71.7624 116.121 71.2533 115.995 70.8262 115.742C70.4017 115.487 70.0736 115.129 69.8418 114.668C69.6126 114.204 69.498 113.661 69.498 113.039C69.498 112.424 69.6126 111.883 69.8418 111.414C70.0736 110.945 70.3965 110.579 70.8105 110.316C71.2272 110.053 71.7142 109.922 72.2715 109.922C72.61 109.922 72.9382 109.978 73.2559 110.09C73.5736 110.202 73.8587 110.378 74.1113 110.617C74.3639 110.857 74.5632 111.168 74.709 111.551C74.8548 111.931 74.9277 112.393 74.9277 112.937V113.352H70.1582V112.477H73.7832C73.7832 112.169 73.7207 111.897 73.5957 111.66C73.4707 111.421 73.2949 111.232 73.0684 111.094C72.8444 110.956 72.5814 110.887 72.2793 110.887C71.9512 110.887 71.6647 110.967 71.4199 111.129C71.1777 111.288 70.9902 111.496 70.8574 111.754C70.7272 112.009 70.6621 112.286 70.6621 112.586V113.27C70.6621 113.671 70.7324 114.012 70.873 114.293C71.0163 114.574 71.2155 114.789 71.4707 114.937C71.7259 115.083 72.0241 115.156 72.3652 115.156C72.5866 115.156 72.7884 115.125 72.9707 115.062C73.153 114.997 73.3105 114.901 73.4434 114.773C73.5762 114.646 73.6777 114.488 73.748 114.301L74.8535 114.5C74.765 114.826 74.6061 115.111 74.377 115.355C74.1504 115.598 73.8652 115.786 73.5215 115.922C73.1803 116.055 72.791 116.121 72.3535 116.121ZM77.3916 112.437V116H76.2236V110H77.3447V110.977H77.4189C77.557 110.659 77.7731 110.404 78.0674 110.211C78.3643 110.018 78.738 109.922 79.1885 109.922C79.5973 109.922 79.9554 110.008 80.2627 110.18C80.57 110.349 80.8083 110.602 80.9775 110.937C81.1468 111.273 81.2314 111.689 81.2314 112.184V116H80.0635V112.324C80.0635 111.889 79.9502 111.549 79.7236 111.305C79.4971 111.057 79.1859 110.934 78.79 110.934C78.5192 110.934 78.2783 110.992 78.0674 111.109C77.859 111.227 77.6937 111.398 77.5713 111.625C77.4515 111.849 77.3916 112.12 77.3916 112.437ZM85.5986 110V110.937H82.3213V110H85.5986ZM83.2002 108.562H84.3682V114.238C84.3682 114.465 84.402 114.635 84.4697 114.75C84.5374 114.862 84.6247 114.939 84.7314 114.98C84.8408 115.02 84.9593 115.039 85.0869 115.039C85.1807 115.039 85.2627 115.033 85.333 115.02C85.4033 115.007 85.458 114.996 85.4971 114.988L85.708 115.953C85.6403 115.979 85.5439 116.005 85.4189 116.031C85.2939 116.06 85.1377 116.076 84.9502 116.078C84.6429 116.083 84.3564 116.029 84.0908 115.914C83.8252 115.799 83.6104 115.622 83.4463 115.383C83.2822 115.143 83.2002 114.842 83.2002 114.48V108.562Z" fill="#151515" fill-opacity="0.75"/>
<path d="M40.8789 166V158H43.7305C44.3529 158 44.8685 158.113 45.2773 158.34C45.6862 158.566 45.9922 158.876 46.1953 159.27C46.3984 159.66 46.5 160.1 46.5 160.59C46.5 161.082 46.3971 161.525 46.1914 161.918C45.9883 162.309 45.681 162.618 45.2695 162.848C44.8607 163.074 44.3464 163.188 43.7266 163.188H41.7656V162.164H43.6172C44.0104 162.164 44.3294 162.096 44.5742 161.961C44.819 161.823 44.9987 161.635 45.1133 161.398C45.2279 161.161 45.2852 160.892 45.2852 160.59C45.2852 160.288 45.2279 160.02 45.1133 159.785C44.9987 159.551 44.8177 159.367 44.5703 159.234C44.3255 159.102 44.0026 159.035 43.6016 159.035H42.0859V166H40.8789ZM47.8213 166V160H48.9502V160.953H49.0127C49.1221 160.63 49.3148 160.376 49.5908 160.191C49.8695 160.004 50.1846 159.91 50.5361 159.91C50.609 159.91 50.695 159.913 50.7939 159.918C50.8955 159.923 50.9749 159.93 51.0322 159.937V161.055C50.9854 161.042 50.902 161.027 50.7822 161.012C50.6624 160.993 50.5426 160.984 50.4229 160.984C50.1468 160.984 49.9007 161.043 49.6846 161.16C49.471 161.275 49.3018 161.435 49.1768 161.641C49.0518 161.844 48.9893 162.076 48.9893 162.336V166H47.8213ZM54.3555 166.121C53.793 166.121 53.3021 165.992 52.8828 165.734C52.4635 165.477 52.138 165.116 51.9063 164.652C51.6745 164.189 51.5586 163.647 51.5586 163.027C51.5586 162.405 51.6745 161.861 51.9063 161.395C52.138 160.928 52.4635 160.566 52.8828 160.309C53.3021 160.051 53.793 159.922 54.3555 159.922C54.918 159.922 55.4089 160.051 55.8281 160.309C56.2474 160.566 56.5729 160.928 56.8047 161.395C57.0365 161.861 57.1523 162.405 57.1523 163.027C57.1523 163.647 57.0365 164.189 56.8047 164.652C56.5729 165.116 56.2474 165.477 55.8281 165.734C55.4089 165.992 54.918 166.121 54.3555 166.121ZM54.3594 165.141C54.724 165.141 55.026 165.044 55.2656 164.852C55.5052 164.659 55.6823 164.402 55.7969 164.082C55.9141 163.762 55.9727 163.409 55.9727 163.023C55.9727 162.641 55.9141 162.289 55.7969 161.969C55.6823 161.646 55.5052 161.387 55.2656 161.191C55.026 160.996 54.724 160.898 54.3594 160.898C53.9922 160.898 53.6875 160.996 53.4453 161.191C53.2057 161.387 53.0273 161.646 52.9102 161.969C52.7956 162.289 52.7383 162.641 52.7383 163.023C52.7383 163.409 52.7956 163.762 52.9102 164.082C53.0273 164.402 53.2057 164.659 53.4453 164.852C53.6875 165.044 53.9922 165.141 54.3594 165.141ZM60.7021 166.117C60.2178 166.117 59.7855 165.993 59.4053 165.746C59.0277 165.496 58.7308 165.141 58.5146 164.68C58.3011 164.216 58.1943 163.66 58.1943 163.012C58.1943 162.363 58.3024 161.809 58.5186 161.348C58.7373 160.887 59.0368 160.534 59.417 160.289C59.7972 160.044 60.2282 159.922 60.71 159.922C61.0824 159.922 61.3818 159.984 61.6084 160.109C61.8376 160.232 62.0146 160.375 62.1396 160.539C62.2673 160.703 62.3662 160.848 62.4365 160.973H62.5068V158H63.6748V166H62.5342V165.066H62.4365C62.3662 165.194 62.2646 165.34 62.1318 165.504C62.0016 165.668 61.8219 165.811 61.5928 165.934C61.3636 166.056 61.0667 166.117 60.7021 166.117ZM60.96 165.121C61.2959 165.121 61.5798 165.033 61.8115 164.855C62.0459 164.676 62.223 164.427 62.3428 164.109C62.4652 163.792 62.5264 163.422 62.5264 163C62.5264 162.583 62.4665 162.219 62.3467 161.906C62.2269 161.594 62.0511 161.35 61.8193 161.176C61.5876 161.001 61.3011 160.914 60.96 160.914C60.6084 160.914 60.3154 161.005 60.0811 161.188C59.8467 161.37 59.6696 161.618 59.5498 161.934C59.4326 162.249 59.374 162.604 59.374 163C59.374 163.401 59.4339 163.762 59.5537 164.082C59.6735 164.402 59.8506 164.656 60.085 164.844C60.3219 165.029 60.6136 165.121 60.96 165.121ZM69.1426 163.512V160H70.3145V166H69.166V164.961H69.1035C68.9655 165.281 68.7441 165.548 68.4395 165.762C68.1374 165.973 67.7611 166.078 67.3105 166.078C66.9251 166.078 66.584 165.993 66.2871 165.824C65.9928 165.652 65.7611 165.398 65.5918 165.062C65.4251 164.727 65.3418 164.311 65.3418 163.816V160H66.5098V163.676C66.5098 164.085 66.623 164.41 66.8496 164.652C67.0762 164.895 67.3704 165.016 67.7324 165.016C67.9512 165.016 68.1686 164.961 68.3848 164.852C68.6035 164.742 68.7845 164.577 68.9277 164.355C69.0736 164.134 69.1452 163.853 69.1426 163.512ZM74.4111 166.121C73.8304 166.121 73.3304 165.99 72.9111 165.727C72.4945 165.461 72.1742 165.095 71.9502 164.629C71.7262 164.163 71.6143 163.629 71.6143 163.027C71.6143 162.418 71.7288 161.88 71.958 161.414C72.1872 160.945 72.5101 160.579 72.9268 160.316C73.3434 160.053 73.8343 159.922 74.3994 159.922C74.8551 159.922 75.2614 160.007 75.6182 160.176C75.9749 160.342 76.2627 160.577 76.4814 160.879C76.7028 161.181 76.8343 161.534 76.876 161.937H75.7393C75.6768 161.656 75.5335 161.414 75.3096 161.211C75.0882 161.008 74.7913 160.906 74.4189 160.906C74.0934 160.906 73.8083 160.992 73.5635 161.164C73.3213 161.333 73.1325 161.576 72.9971 161.891C72.8617 162.203 72.7939 162.573 72.7939 163C72.7939 163.437 72.8604 163.815 72.9932 164.133C73.126 164.451 73.3135 164.697 73.5557 164.871C73.8005 165.046 74.0882 165.133 74.4189 165.133C74.6403 165.133 74.8408 165.092 75.0205 165.012C75.2028 164.928 75.3551 164.81 75.4775 164.656C75.6025 164.503 75.6898 164.318 75.7393 164.102H76.876C76.8343 164.49 76.708 164.836 76.4971 165.141C76.2861 165.445 76.0036 165.685 75.6494 165.859C75.2979 166.034 74.8851 166.121 74.4111 166.121ZM80.9258 160V160.937H77.6484V160H80.9258ZM78.5273 158.562H79.6953V164.238C79.6953 164.465 79.7292 164.635 79.7969 164.75C79.8646 164.862 79.9518 164.939 80.0586 164.98C80.168 165.02 80.2865 165.039 80.4141 165.039C80.5078 165.039 80.5898 165.033 80.6602 165.02C80.7305 165.007 80.7852 164.996 80.8242 164.988L81.0352 165.953C80.9674 165.979 80.8711 166.005 80.7461 166.031C80.6211 166.06 80.4648 166.076 80.2773 166.078C79.9701 166.083 79.6836 166.029 79.418 165.914C79.1523 165.799 78.9375 165.622 78.7734 165.383C78.6094 165.143 78.5273 164.842 78.5273 164.48V158.562ZM86.6172 161.465L85.5586 161.652C85.5143 161.517 85.444 161.388 85.3477 161.266C85.2539 161.143 85.1263 161.043 84.9648 160.965C84.8034 160.887 84.6016 160.848 84.3594 160.848C84.0286 160.848 83.7526 160.922 83.5313 161.07C83.3099 161.216 83.1992 161.405 83.1992 161.637C83.1992 161.837 83.2734 161.999 83.4219 162.121C83.5703 162.243 83.8099 162.344 84.1406 162.422L85.0938 162.641C85.6458 162.768 86.0573 162.965 86.3281 163.23C86.599 163.496 86.7344 163.841 86.7344 164.266C86.7344 164.625 86.6302 164.945 86.4219 165.227C86.2161 165.505 85.9284 165.724 85.5586 165.883C85.1914 166.042 84.7656 166.121 84.2813 166.121C83.6094 166.121 83.0612 165.978 82.6367 165.691C82.2122 165.402 81.9518 164.992 81.8555 164.461L82.9844 164.289C83.0547 164.583 83.1992 164.806 83.418 164.957C83.6367 165.105 83.9219 165.18 84.2734 165.18C84.6563 165.18 84.9622 165.1 85.1914 164.941C85.4206 164.78 85.5352 164.583 85.5352 164.352C85.5352 164.164 85.4648 164.007 85.3242 163.879C85.1862 163.751 84.974 163.655 84.6875 163.59L83.6719 163.367C83.112 163.24 82.6979 163.036 82.4297 162.758C82.1641 162.479 82.0312 162.126 82.0312 161.699C82.0312 161.345 82.1302 161.035 82.3281 160.77C82.526 160.504 82.7995 160.297 83.1484 160.148C83.4974 159.997 83.8971 159.922 84.3477 159.922C84.9961 159.922 85.5065 160.062 85.8789 160.344C86.2513 160.622 86.4974 160.996 86.6172 161.465Z" fill="#151515" fill-opacity="0.75"/>
<path d="M21.5 166C21.225 166 20.9896 165.902 20.7938 165.706C20.5979 165.51 20.5 165.275 20.5 165V160C20.5 159.858 20.5479 159.74 20.6438 159.644C20.7396 159.548 20.8583 159.5 21 159.5C21.1417 159.5 21.2604 159.548 21.3563 159.644C21.4521 159.74 21.5 159.858 21.5 160V165H29.5C29.6417 165 29.7604 165.048 29.8563 165.144C29.9521 165.24 30 165.358 30 165.5C30 165.642 29.9521 165.76 29.8563 165.856C29.7604 165.952 29.6417 166 29.5 166H21.5ZM23.5 164C23.225 164 22.9896 163.902 22.7938 163.706C22.5979 163.51 22.5 163.275 22.5 163V159C22.5 158.725 22.5979 158.49 22.7938 158.294C22.9896 158.098 23.225 158 23.5 158H30.5C30.775 158 31.0104 158.098 31.2063 158.294C31.4021 158.49 31.5 158.725 31.5 159V163C31.5 163.275 31.4021 163.51 31.2063 163.706C31.0104 163.902 30.775 164 30.5 164H23.5ZM24.5 163C24.5 162.725 24.4021 162.49 24.2063 162.294C24.0104 162.098 23.775 162 23.5 162V163H24.5ZM29.5 163H30.5V162C30.225 162 29.9896 162.098 29.7938 162.294C29.5979 162.49 29.5 162.725 29.5 163ZM27 162.5C27.4167 162.5 27.7708 162.354 28.0625 162.063C28.3542 161.771 28.5 161.417 28.5 161C28.5 160.583 28.3542 160.229 28.0625 159.938C27.7708 159.646 27.4167 159.5 27 159.5C26.5833 159.5 26.2292 159.646 25.9375 159.938C25.6458 160.229 25.5 160.583 25.5 161C25.5 161.417 25.6458 161.771 25.9375 162.063C26.2292 162.354 26.5833 162.5 27 162.5ZM23.5 160C23.775 160 24.0104 159.902 24.2063 159.706C24.4021 159.51 24.5 159.275 24.5 159H23.5V160ZM30.5 160V159H29.5C29.5 159.275 29.5979 159.51 29.7938 159.706C29.9896 159.902 30.225 160 30.5 160Z" fill="#151515"/>
<path d="M40.8789 133H42.3438L44.8906 139.219H44.9844L47.5313 133H48.9961V141H47.8477V135.211H47.7734L45.4141 140.988H44.4609L42.1016 135.207H42.0273V141H40.8789V133ZM51.3955 143.25C51.221 143.25 51.0622 143.236 50.9189 143.207C50.7757 143.181 50.6689 143.152 50.5986 143.121L50.8799 142.164C51.0934 142.221 51.2835 142.246 51.4502 142.238C51.6169 142.23 51.764 142.168 51.8916 142.051C52.0218 141.934 52.1364 141.742 52.2354 141.477L52.3799 141.078L50.1846 135H51.4346L52.9541 139.656H53.0166L54.5361 135H55.79L53.3174 141.801C53.2028 142.113 53.057 142.378 52.8799 142.594C52.7028 142.813 52.4919 142.977 52.2471 143.086C52.0023 143.195 51.7184 143.25 51.3955 143.25ZM66.8418 137C66.8418 137.854 66.6855 138.589 66.373 139.203C66.0605 139.815 65.6322 140.286 65.0879 140.617C64.5462 140.945 63.9303 141.109 63.2402 141.109C62.5475 141.109 61.929 140.945 61.3848 140.617C60.8431 140.286 60.416 139.814 60.1035 139.199C59.791 138.585 59.6348 137.852 59.6348 137C59.6348 136.146 59.791 135.413 60.1035 134.801C60.416 134.186 60.8431 133.715 61.3848 133.387C61.929 133.056 62.5475 132.891 63.2402 132.891C63.9303 132.891 64.5462 133.056 65.0879 133.387C65.6322 133.715 66.0605 134.186 66.373 134.801C66.6855 135.413 66.8418 136.146 66.8418 137ZM65.6465 137C65.6465 136.349 65.541 135.801 65.3301 135.355C65.1217 134.908 64.8353 134.569 64.4707 134.34C64.1087 134.108 63.6986 133.992 63.2402 133.992C62.7793 133.992 62.3678 134.108 62.0059 134.34C61.6439 134.569 61.3574 134.908 61.1465 135.355C60.9382 135.801 60.834 136.349 60.834 137C60.834 137.651 60.9382 138.201 61.1465 138.648C61.3574 139.094 61.6439 139.432 62.0059 139.664C62.3678 139.893 62.7793 140.008 63.2402 140.008C63.6986 140.008 64.1087 139.893 64.4707 139.664C64.8353 139.432 65.1217 139.094 65.3301 138.648C65.541 138.201 65.6465 137.651 65.6465 137ZM68.2529 141V135H69.3818V135.953H69.4443C69.5537 135.63 69.7464 135.376 70.0225 135.191C70.3011 135.004 70.6162 134.91 70.9678 134.91C71.0407 134.91 71.1266 134.913 71.2256 134.918C71.3271 134.923 71.4066 134.93 71.4639 134.937V136.055C71.417 136.042 71.3337 136.027 71.2139 136.012C71.0941 135.993 70.9743 135.984 70.8545 135.984C70.5785 135.984 70.3324 136.043 70.1162 136.16C69.9027 136.275 69.7334 136.435 69.6084 136.641C69.4834 136.844 69.4209 137.076 69.4209 137.336V141H68.2529ZM74.5059 141.117C74.0215 141.117 73.5892 140.993 73.209 140.746C72.8314 140.496 72.5345 140.141 72.3184 139.68C72.1048 139.216 71.998 138.66 71.998 138.012C71.998 137.363 72.1061 136.809 72.3223 136.348C72.541 135.887 72.8405 135.534 73.2207 135.289C73.6009 135.044 74.0319 134.922 74.5137 134.922C74.8861 134.922 75.1855 134.984 75.4121 135.109C75.6413 135.232 75.8184 135.375 75.9434 135.539C76.071 135.703 76.1699 135.848 76.2402 135.973H76.3105V133H77.4785V141H76.3379V140.066H76.2402C76.1699 140.194 76.0684 140.34 75.9355 140.504C75.8053 140.668 75.6257 140.811 75.3965 140.934C75.1673 141.056 74.8704 141.117 74.5059 141.117ZM74.7637 140.121C75.0996 140.121 75.3835 140.033 75.6152 139.855C75.8496 139.676 76.0267 139.427 76.1465 139.109C76.2689 138.792 76.3301 138.422 76.3301 138C76.3301 137.583 76.2702 137.219 76.1504 136.906C76.0306 136.594 75.8548 136.35 75.623 136.176C75.3913 136.001 75.1048 135.914 74.7637 135.914C74.4121 135.914 74.1191 136.005 73.8848 136.188C73.6504 136.37 73.4733 136.618 73.3535 136.934C73.2363 137.249 73.1777 137.604 73.1777 138C73.1777 138.401 73.2376 138.762 73.3574 139.082C73.4772 139.402 73.6543 139.656 73.8887 139.844C74.1257 140.029 74.4173 140.121 74.7637 140.121ZM81.7314 141.121C81.1403 141.121 80.6312 140.995 80.2041 140.742C79.7796 140.487 79.4515 140.129 79.2197 139.668C78.9906 139.204 78.876 138.661 78.876 138.039C78.876 137.424 78.9906 136.883 79.2197 136.414C79.4515 135.945 79.7744 135.579 80.1885 135.316C80.6051 135.053 81.0921 134.922 81.6494 134.922C81.988 134.922 82.3161 134.978 82.6338 135.09C82.9515 135.202 83.2367 135.378 83.4893 135.617C83.7419 135.857 83.9411 136.168 84.0869 136.551C84.2327 136.931 84.3057 137.393 84.3057 137.937V138.352H79.5361V137.477H83.1611C83.1611 137.169 83.0986 136.897 82.9736 136.66C82.8486 136.421 82.6729 136.232 82.4463 136.094C82.2223 135.956 81.9593 135.887 81.6572 135.887C81.3291 135.887 81.0426 135.967 80.7979 136.129C80.5557 136.288 80.3682 136.496 80.2354 136.754C80.1051 137.009 80.04 137.286 80.04 137.586V138.27C80.04 138.671 80.1104 139.012 80.251 139.293C80.3942 139.574 80.5934 139.789 80.8486 139.937C81.1038 140.083 81.402 140.156 81.7432 140.156C81.9645 140.156 82.1663 140.125 82.3486 140.062C82.5309 139.997 82.6885 139.901 82.8213 139.773C82.9541 139.646 83.0557 139.488 83.126 139.301L84.2314 139.5C84.1429 139.826 83.984 140.111 83.7549 140.355C83.5283 140.598 83.2432 140.786 82.8994 140.922C82.5583 141.055 82.1689 141.121 81.7314 141.121ZM85.6016 141V135H86.7305V135.953H86.793C86.9023 135.63 87.0951 135.376 87.3711 135.191C87.6497 135.004 87.9648 134.91 88.3164 134.91C88.3893 134.91 88.4753 134.913 88.5742 134.918C88.6758 134.923 88.7552 134.93 88.8125 134.937V136.055C88.7656 136.042 88.6823 136.027 88.5625 136.012C88.4427 135.993 88.3229 135.984 88.2031 135.984C87.9271 135.984 87.681 136.043 87.4648 136.16C87.2513 136.275 87.082 136.435 86.957 136.641C86.832 136.844 86.7695 137.076 86.7695 137.336V141H85.6016ZM94.3193 136.465L93.2607 136.652C93.2165 136.517 93.1462 136.388 93.0498 136.266C92.9561 136.143 92.8285 136.043 92.667 135.965C92.5055 135.887 92.3037 135.848 92.0615 135.848C91.7308 135.848 91.4548 135.922 91.2334 136.07C91.012 136.216 90.9014 136.405 90.9014 136.637C90.9014 136.837 90.9756 136.999 91.124 137.121C91.2725 137.243 91.512 137.344 91.8428 137.422L92.7959 137.641C93.348 137.768 93.7594 137.965 94.0303 138.23C94.3011 138.496 94.4365 138.841 94.4365 139.266C94.4365 139.625 94.3324 139.945 94.124 140.227C93.9183 140.505 93.6305 140.724 93.2607 140.883C92.8936 141.042 92.4678 141.121 91.9834 141.121C91.3115 141.121 90.7633 140.978 90.3389 140.691C89.9144 140.402 89.654 139.992 89.5576 139.461L90.6865 139.289C90.7568 139.583 90.9014 139.806 91.1201 139.957C91.3389 140.105 91.624 140.18 91.9756 140.18C92.3584 140.18 92.6644 140.1 92.8936 139.941C93.1227 139.78 93.2373 139.583 93.2373 139.352C93.2373 139.164 93.167 139.007 93.0264 138.879C92.8883 138.751 92.6761 138.655 92.3896 138.59L91.374 138.367C90.8141 138.24 90.4001 138.036 90.1318 137.758C89.8662 137.479 89.7334 137.126 89.7334 136.699C89.7334 136.345 89.8324 136.035 90.0303 135.77C90.2282 135.504 90.5016 135.297 90.8506 135.148C91.1995 134.997 91.5993 134.922 92.0498 134.922C92.6982 134.922 93.2087 135.062 93.5811 135.344C93.9535 135.622 94.1995 135.996 94.3193 136.465Z" fill="#151515" fill-opacity="0.75"/>
<path d="M22 140V134.55L21.225 132.875C21.1666 132.75 21.1625 132.623 21.2125 132.494C21.2625 132.364 21.35 132.271 21.475 132.212C21.6 132.154 21.7271 132.148 21.8562 132.194C21.9854 132.239 22.0791 132.325 22.1375 132.45L23.1 134.525H28.9L29.8625 132.45C29.9208 132.325 30.0146 132.237 30.1437 132.187C30.2729 132.137 30.4 132.146 30.525 132.212C30.65 132.271 30.7375 132.364 30.7875 132.494C30.8375 132.623 30.8333 132.75 30.775 132.875L30 134.55V140C30 140.275 29.9021 140.51 29.7062 140.706C29.5104 140.902 29.275 141 29 141H23C22.725 141 22.4896 140.902 22.2937 140.706C22.0979 140.51 22 140.275 22 140ZM25 137.5H27C27.1416 137.5 27.2604 137.452 27.3562 137.356C27.4521 137.26 27.5 137.142 27.5 137C27.5 136.858 27.4521 136.739 27.3562 136.644C27.2604 136.548 27.1416 136.5 27 136.5H25C24.8583 136.5 24.7396 136.548 24.6437 136.644C24.5479 136.739 24.5 136.858 24.5 137C24.5 137.142 24.5479 137.26 24.6437 137.356C24.7396 137.452 24.8583 137.5 25 137.5Z" fill="#151515"/>
<path d="M46.0234 289H47.2344V294.262C47.2344 294.822 47.1029 295.318 46.8398 295.75C46.5768 296.18 46.207 296.518 45.7305 296.766C45.2539 297.01 44.6953 297.133 44.0547 297.133C43.4167 297.133 42.8594 297.01 42.3828 296.766C41.9063 296.518 41.5365 296.18 41.2734 295.75C41.0104 295.318 40.8789 294.822 40.8789 294.262V289H42.0859V294.164C42.0859 294.526 42.1654 294.848 42.3242 295.129C42.4857 295.41 42.7135 295.632 43.0078 295.793C43.3021 295.952 43.651 296.031 44.0547 296.031C44.4609 296.031 44.8112 295.952 45.1055 295.793C45.4023 295.632 45.6289 295.41 45.7852 295.129C45.944 294.848 46.0234 294.526 46.0234 294.164V289ZM53.3916 292.465L52.333 292.652C52.2887 292.517 52.2184 292.388 52.1221 292.266C52.0283 292.143 51.9007 292.043 51.7393 291.965C51.5778 291.887 51.376 291.848 51.1338 291.848C50.8031 291.848 50.527 291.922 50.3057 292.07C50.0843 292.216 49.9736 292.405 49.9736 292.637C49.9736 292.837 50.0479 292.999 50.1963 293.121C50.3447 293.243 50.5843 293.344 50.915 293.422L51.8682 293.641C52.4202 293.768 52.8317 293.965 53.1025 294.23C53.3734 294.496 53.5088 294.841 53.5088 295.266C53.5088 295.625 53.4046 295.945 53.1963 296.227C52.9906 296.505 52.7028 296.724 52.333 296.883C51.9658 297.042 51.54 297.121 51.0557 297.121C50.3838 297.121 49.8356 296.978 49.4111 296.691C48.9867 296.402 48.7262 295.992 48.6299 295.461L49.7588 295.289C49.8291 295.583 49.9736 295.806 50.1924 295.957C50.4111 296.105 50.6963 296.18 51.0479 296.18C51.4307 296.18 51.7367 296.1 51.9658 295.941C52.195 295.78 52.3096 295.583 52.3096 295.352C52.3096 295.164 52.2393 295.007 52.0986 294.879C51.9606 294.751 51.7484 294.655 51.4619 294.59L50.4463 294.367C49.8864 294.24 49.4723 294.036 49.2041 293.758C48.9385 293.479 48.8057 293.126 48.8057 292.699C48.8057 292.345 48.9046 292.035 49.1025 291.77C49.3005 291.504 49.5739 291.297 49.9229 291.148C50.2718 290.997 50.6715 290.922 51.1221 290.922C51.7705 290.922 52.2809 291.062 52.6533 291.344C53.0257 291.622 53.2718 291.996 53.3916 292.465ZM57.3789 297.121C56.7878 297.121 56.2786 296.995 55.8516 296.742C55.4271 296.487 55.099 296.129 54.8672 295.668C54.638 295.204 54.5234 294.661 54.5234 294.039C54.5234 293.424 54.638 292.883 54.8672 292.414C55.099 291.945 55.4219 291.579 55.8359 291.316C56.2526 291.053 56.7396 290.922 57.2969 290.922C57.6354 290.922 57.9635 290.978 58.2813 291.09C58.599 291.202 58.8841 291.378 59.1367 291.617C59.3893 291.857 59.5885 292.168 59.7344 292.551C59.8802 292.931 59.9531 293.393 59.9531 293.937V294.352H55.1836V293.477H58.8086C58.8086 293.169 58.7461 292.897 58.6211 292.66C58.4961 292.421 58.3203 292.232 58.0938 292.094C57.8698 291.956 57.6068 291.887 57.3047 291.887C56.9766 291.887 56.6901 291.967 56.4453 292.129C56.2031 292.288 56.0156 292.496 55.8828 292.754C55.7526 293.009 55.6875 293.286 55.6875 293.586V294.27C55.6875 294.671 55.7578 295.012 55.8984 295.293C56.0417 295.574 56.2409 295.789 56.4961 295.937C56.7513 296.083 57.0495 296.156 57.3906 296.156C57.612 296.156 57.8138 296.125 57.9961 296.062C58.1784 295.997 58.3359 295.901 58.4688 295.773C58.6016 295.646 58.7031 295.488 58.7734 295.301L59.8789 295.5C59.7904 295.826 59.6315 296.111 59.4023 296.355C59.1758 296.598 58.8906 296.786 58.5469 296.922C58.2057 297.055 57.8164 297.121 57.3789 297.121ZM61.249 297V291H62.3779V291.953H62.4404C62.5498 291.63 62.7425 291.376 63.0186 291.191C63.2972 291.004 63.6123 290.91 63.9639 290.91C64.0368 290.91 64.1227 290.913 64.2217 290.918C64.3232 290.923 64.4027 290.93 64.46 290.937V292.055C64.4131 292.042 64.3298 292.027 64.21 292.012C64.0902 291.993 63.9704 291.984 63.8506 291.984C63.5745 291.984 63.3285 292.043 63.1123 292.16C62.8988 292.275 62.7295 292.435 62.6045 292.641C62.4795 292.844 62.417 293.076 62.417 293.336V297H61.249ZM69.9668 292.465L68.9082 292.652C68.8639 292.517 68.7936 292.388 68.6973 292.266C68.6035 292.143 68.4759 292.043 68.3145 291.965C68.153 291.887 67.9512 291.848 67.709 291.848C67.3783 291.848 67.1022 291.922 66.8809 292.07C66.6595 292.216 66.5488 292.405 66.5488 292.637C66.5488 292.837 66.623 292.999 66.7715 293.121C66.9199 293.243 67.1595 293.344 67.4902 293.422L68.4434 293.641C68.9954 293.768 69.4069 293.965 69.6777 294.23C69.9486 294.496 70.084 294.841 70.084 295.266C70.084 295.625 69.9798 295.945 69.7715 296.227C69.5658 296.505 69.278 296.724 68.9082 296.883C68.541 297.042 68.1152 297.121 67.6309 297.121C66.959 297.121 66.4108 296.978 65.9863 296.691C65.5618 296.402 65.3014 295.992 65.2051 295.461L66.334 295.289C66.4043 295.583 66.5488 295.806 66.7676 295.957C66.9863 296.105 67.2715 296.18 67.623 296.18C68.0059 296.18 68.3118 296.1 68.541 295.941C68.7702 295.78 68.8848 295.583 68.8848 295.352C68.8848 295.164 68.8145 295.007 68.6738 294.879C68.5358 294.751 68.3236 294.655 68.0371 294.59L67.0215 294.367C66.4616 294.24 66.0475 294.036 65.7793 293.758C65.5137 293.479 65.3809 293.126 65.3809 292.699C65.3809 292.345 65.4798 292.035 65.6777 291.77C65.8757 291.504 66.1491 291.297 66.498 291.148C66.847 290.997 67.2467 290.922 67.6973 290.922C68.3457 290.922 68.8561 291.062 69.2285 291.344C69.6009 291.622 69.847 291.996 69.9668 292.465Z" fill="#151515" fill-opacity="0.75"/>
<path d="M20.5 295.6C20.5 295.317 20.5729 295.056 20.7188 294.819C20.8646 294.581 21.0583 294.4 21.3 294.275C21.8167 294.017 22.3417 293.823 22.875 293.694C23.4083 293.565 23.95 293.5 24.5 293.5C25.05 293.5 25.5917 293.565 26.125 293.694C26.6583 293.823 27.1833 294.017 27.7 294.275C27.9417 294.4 28.1354 294.581 28.2813 294.819C28.4271 295.056 28.5 295.317 28.5 295.6V296C28.5 296.275 28.4021 296.51 28.2063 296.706C28.0104 296.902 27.775 297 27.5 297H21.5C21.225 297 20.9896 296.902 20.7938 296.706C20.5979 296.51 20.5 296.275 20.5 296V295.6ZM29.225 297C29.3167 296.85 29.3854 296.69 29.4313 296.519C29.4771 296.348 29.5 296.175 29.5 296V295.5C29.5 295.133 29.3979 294.781 29.1938 294.444C28.9896 294.106 28.7 293.817 28.325 293.575C28.75 293.625 29.15 293.71 29.525 293.831C29.9 293.952 30.25 294.1 30.575 294.275C30.875 294.442 31.1042 294.627 31.2625 294.831C31.4208 295.035 31.5 295.258 31.5 295.5V296C31.5 296.275 31.4021 296.51 31.2063 296.706C31.0104 296.902 30.775 297 30.5 297H29.225ZM24.5 293C23.95 293 23.4792 292.804 23.0875 292.413C22.6958 292.021 22.5 291.55 22.5 291C22.5 290.45 22.6958 289.979 23.0875 289.588C23.4792 289.196 23.95 289 24.5 289C25.05 289 25.5208 289.196 25.9125 289.588C26.3042 289.979 26.5 290.45 26.5 291C26.5 291.55 26.3042 292.021 25.9125 292.413C25.5208 292.804 25.05 293 24.5 293ZM29.5 291C29.5 291.55 29.3042 292.021 28.9125 292.413C28.5208 292.804 28.05 293 27.5 293C27.4083 293 27.2917 292.99 27.15 292.969C27.0083 292.948 26.8917 292.925 26.8 292.9C27.025 292.633 27.1979 292.338 27.3188 292.013C27.4396 291.688 27.5 291.35 27.5 291C27.5 290.65 27.4396 290.313 27.3188 289.988C27.1979 289.663 27.025 289.367 26.8 289.1C26.9167 289.058 27.0333 289.031 27.15 289.019C27.2667 289.006 27.3833 289 27.5 289C28.05 289 28.5208 289.196 28.9125 289.588C29.3042 289.979 29.5 290.45 29.5 291Z" fill="#151515"/>
<path d="M40.8789 318V310H42.0859V316.961H45.7109V318H40.8789ZM49.5215 318.121C48.959 318.121 48.4681 317.992 48.0488 317.734C47.6296 317.477 47.304 317.116 47.0723 316.652C46.8405 316.189 46.7246 315.647 46.7246 315.027C46.7246 314.405 46.8405 313.861 47.0723 313.395C47.304 312.928 47.6296 312.566 48.0488 312.309C48.4681 312.051 48.959 311.922 49.5215 311.922C50.084 311.922 50.5749 312.051 50.9941 312.309C51.4134 312.566 51.7389 312.928 51.9707 313.395C52.2025 313.861 52.3184 314.405 52.3184 315.027C52.3184 315.647 52.2025 316.189 51.9707 316.652C51.7389 317.116 51.4134 317.477 50.9941 317.734C50.5749 317.992 50.084 318.121 49.5215 318.121ZM49.5254 317.141C49.89 317.141 50.1921 317.044 50.4316 316.852C50.6712 316.659 50.8483 316.402 50.9629 316.082C51.0801 315.762 51.1387 315.409 51.1387 315.023C51.1387 314.641 51.0801 314.289 50.9629 313.969C50.8483 313.646 50.6712 313.387 50.4316 313.191C50.1921 312.996 49.89 312.898 49.5254 312.898C49.1582 312.898 48.8535 312.996 48.6113 313.191C48.3717 313.387 48.1934 313.646 48.0762 313.969C47.9616 314.289 47.9043 314.641 47.9043 315.023C47.9043 315.409 47.9616 315.762 48.0762 316.082C48.1934 316.402 48.3717 316.659 48.6113 316.852C48.8535 317.044 49.1582 317.141 49.5254 317.141ZM56.1377 320.375C55.6611 320.375 55.251 320.313 54.9072 320.188C54.5661 320.063 54.2874 319.897 54.0713 319.691C53.8551 319.486 53.6937 319.26 53.5869 319.016L54.5908 318.602C54.6611 318.716 54.7549 318.837 54.8721 318.965C54.9919 319.095 55.1533 319.206 55.3564 319.297C55.5622 319.388 55.8265 319.434 56.1494 319.434C56.5921 319.434 56.958 319.326 57.2471 319.109C57.5361 318.896 57.6807 318.555 57.6807 318.086V316.906H57.6064C57.5361 317.034 57.4346 317.176 57.3018 317.332C57.1715 317.488 56.9919 317.624 56.7627 317.738C56.5335 317.853 56.2354 317.91 55.8682 317.91C55.3942 317.91 54.9671 317.799 54.5869 317.578C54.2093 317.354 53.9098 317.025 53.6885 316.59C53.4697 316.152 53.3604 315.615 53.3604 314.977C53.3604 314.339 53.4684 313.792 53.6846 313.336C53.9033 312.88 54.2028 312.531 54.583 312.289C54.9632 312.044 55.3942 311.922 55.876 311.922C56.2484 311.922 56.5492 311.984 56.7783 312.109C57.0075 312.232 57.1859 312.375 57.3135 312.539C57.4437 312.703 57.5439 312.848 57.6143 312.973H57.7002V312H58.8447V318.133C58.8447 318.648 58.7249 319.072 58.4854 319.402C58.2458 319.733 57.9215 319.978 57.5127 320.137C57.1064 320.296 56.6481 320.375 56.1377 320.375ZM56.126 316.941C56.4619 316.941 56.7458 316.863 56.9775 316.707C57.2119 316.548 57.389 316.322 57.5088 316.027C57.6312 315.73 57.6924 315.375 57.6924 314.961C57.6924 314.557 57.6325 314.202 57.5127 313.895C57.3929 313.587 57.2171 313.348 56.9854 313.176C56.7536 313.001 56.4671 312.914 56.126 312.914C55.7744 312.914 55.4814 313.005 55.2471 313.188C55.0127 313.367 54.8356 313.612 54.7158 313.922C54.5986 314.232 54.54 314.578 54.54 314.961C54.54 315.354 54.5999 315.699 54.7197 315.996C54.8395 316.293 55.0166 316.525 55.251 316.691C55.488 316.858 55.7796 316.941 56.126 316.941ZM62.9385 318.121C62.376 318.121 61.8851 317.992 61.4658 317.734C61.0465 317.477 60.721 317.116 60.4893 316.652C60.2575 316.189 60.1416 315.647 60.1416 315.027C60.1416 314.405 60.2575 313.861 60.4893 313.395C60.721 312.928 61.0465 312.566 61.4658 312.309C61.8851 312.051 62.376 311.922 62.9385 311.922C63.501 311.922 63.9919 312.051 64.4111 312.309C64.8304 312.566 65.1559 312.928 65.3877 313.395C65.6195 313.861 65.7354 314.405 65.7354 315.027C65.7354 315.647 65.6195 316.189 65.3877 316.652C65.1559 317.116 64.8304 317.477 64.4111 317.734C63.9919 317.992 63.501 318.121 62.9385 318.121ZM62.9424 317.141C63.307 317.141 63.609 317.044 63.8486 316.852C64.0882 316.659 64.2653 316.402 64.3799 316.082C64.4971 315.762 64.5557 315.409 64.5557 315.023C64.5557 314.641 64.4971 314.289 64.3799 313.969C64.2653 313.646 64.0882 313.387 63.8486 313.191C63.609 312.996 63.307 312.898 62.9424 312.898C62.5752 312.898 62.2705 312.996 62.0283 313.191C61.7887 313.387 61.6104 313.646 61.4932 313.969C61.3786 314.289 61.3213 314.641 61.3213 315.023C61.3213 315.409 61.3786 315.762 61.4932 316.082C61.6104 316.402 61.7887 316.659 62.0283 316.852C62.2705 317.044 62.5752 317.141 62.9424 317.141ZM70.8398 315.512V312H72.0117V318H70.8633V316.961H70.8008C70.6628 317.281 70.4414 317.548 70.1367 317.762C69.8346 317.973 69.4583 318.078 69.0078 318.078C68.6224 318.078 68.2813 317.993 67.9844 317.824C67.6901 317.652 67.4583 317.398 67.2891 317.062C67.1224 316.727 67.0391 316.311 67.0391 315.816V312H68.207V315.676C68.207 316.085 68.3203 316.41 68.5469 316.652C68.7734 316.895 69.0677 317.016 69.4297 317.016C69.6484 317.016 69.8659 316.961 70.082 316.852C70.3008 316.742 70.4818 316.577 70.625 316.355C70.7708 316.134 70.8424 315.853 70.8398 315.512ZM76.3818 312V312.937H73.1045V312H76.3818ZM73.9834 310.562H75.1514V316.238C75.1514 316.465 75.1852 316.635 75.2529 316.75C75.3206 316.862 75.4079 316.939 75.5146 316.98C75.624 317.02 75.7425 317.039 75.8701 317.039C75.9639 317.039 76.0459 317.033 76.1162 317.02C76.1865 317.007 76.2412 316.996 76.2803 316.988L76.4912 317.953C76.4235 317.979 76.3271 318.005 76.2021 318.031C76.0771 318.06 75.9209 318.076 75.7334 318.078C75.4261 318.083 75.1396 318.029 74.874 317.914C74.6084 317.799 74.3936 317.622 74.2295 317.383C74.0654 317.143 73.9834 316.842 73.9834 316.48V310.562Z" fill="#151515" fill-opacity="0.75"/>
<path d="M22.5 318.5C22.225 318.5 21.9896 318.402 21.7938 318.206C21.5979 318.01 21.5 317.775 21.5 317.5V310.5C21.5 310.225 21.5979 309.99 21.7938 309.794C21.9896 309.598 22.225 309.5 22.5 309.5H25.5C25.6417 309.5 25.7604 309.548 25.8563 309.644C25.9521 309.74 26 309.858 26 310C26 310.142 25.9521 310.26 25.8563 310.356C25.7604 310.452 25.6417 310.5 25.5 310.5H22.5V317.5H25.5C25.6417 317.5 25.7604 317.548 25.8563 317.644C25.9521 317.74 26 317.858 26 318C26 318.142 25.9521 318.26 25.8563 318.356C25.7604 318.452 25.6417 318.5 25.5 318.5H22.5ZM28.5875 314.5H25C24.8583 314.5 24.7396 314.452 24.6438 314.356C24.5479 314.26 24.5 314.142 24.5 314C24.5 313.858 24.5479 313.74 24.6438 313.644C24.7396 313.548 24.8583 313.5 25 313.5H28.5875L27.65 312.563C27.5583 312.471 27.5125 312.358 27.5125 312.225C27.5125 312.092 27.5583 311.975 27.65 311.875C27.7417 311.775 27.8583 311.723 28 311.719C28.1417 311.715 28.2625 311.763 28.3625 311.863L30.15 313.65C30.25 313.75 30.3 313.867 30.3 314C30.3 314.133 30.25 314.25 30.15 314.35L28.3625 316.138C28.2625 316.238 28.1438 316.285 28.0063 316.281C27.8688 316.277 27.75 316.225 27.65 316.125C27.5583 316.025 27.5146 315.906 27.5188 315.769C27.5229 315.631 27.5708 315.517 27.6625 315.425L28.5875 314.5Z" fill="#151515"/>
</svg>
